<?xml version="1.0" encoding="UTF-8"?>
<svg version="1.1" viewBox="0 0 1148 960" width="287" height="240" xmlns="http://www.w3.org/2000/svg">
<path transform="translate(234,69)" d="m0 0 9 1 9 4 11 7 14 11 13 11 11 9 11 10 14 11 17 13 18 13 14 10 20 14 14 8 20 8 28 9 62 18 70 19 25 8 25 10 17 9 12 9 12 11 9 10 10 15 8 16 5 15 4 20 1 14-1 23-3 21-4 17-8 24-12 31v6l6 10 13 16 7 8 3 2v2l4 2 10 10 8 7 24 22 13 12 15 15 8 7 17 17 8 7 8 8 8 7 17 16 15 14 8 7 11 8 11 5 9 2h59l17 1 14 3 8 5 5 5 6 7 5 11 1 4v17l-4 10-7 10-10 10-15 9-25 12-25 10-1 7-2 28-4-2-18-24-3-1-26 7-32 6-10 1-1 8-6 19-2 7-3-3-12-29-20-1-17-3-21-7-19-9-24-15-20-14-18-13-19-14-19-11-14-8-3-1-81-2-21-1-15-3-14-5-13-7-10-8-9-10-6-10-5-11-4-18-4-27-2-20-29 3h-24l-17-4-15-6-14-8-11-10-9-14-5-9-5-5-8-5-15-8-10-9-6-9-2-5v-12l6-12-1-5-13-11-11-11-10-15-2-7-2-23-8-5-21-10-15-10-11-9-15-15-11-15-5-11-1-5v-8l2-8 9-19-4-8-8-10-8-16-2-8v-24l4-13 9-15-1-8-15-29-8-16-3-10 1-10 5-10 8-8 7-3h9l12 4 12 8 17 13 16 13 9 6h5l6-5 7-10-1-6-11-23-10-21-4-13-1-13 3-10 4-6 7-6zm7 29 1 8 7 20 10 17 10 14 11 12 12 13 10 9 12 11 17 13 18 12 15 9 25 13 26 11 52 17 38 11 60 17 18 6 27 13 16 10 13 10 12 12 7 12 7 21 3 14 1 8v12l-3 16-7 16-10 16-5 6 2 4 7 3 9-1 8-6 4-5 10-21 6-18 2-11v-21l-1-33-4-20-6-16-7-12-11-13-14-11-21-11-29-11-58-17-62-16-41-11-18-6-16-8-16-10-15-10-22-15-20-14-21-16-13-10-22-18-12-11-14-11-5-3zm-86 69 1 7 6 15 7 14 8 11 9 11 21 21 8 7 15 12 17 11 29 16 26 13 35 13 23 7 46 12 49 11 50 12 16 5 16 6 19 10 12 8 10 10 7 12 6 15 4 17 2 12 1 19-3 16-4 9-8 11-6 8-6 12-1 5v16l3 7 3 2h7l6-4 4-5 6-12 10-27 10-32 5-21v-22l-4-28-4-17-8-17-9-12-9-10-10-8-19-9-18-7-28-8-29-7-32-6-58-11-36-9-25-9-30-14-20-11-16-10-19-12-18-13-16-11-19-14-20-14-16-11zm102 26-5 6 2 5 17 12 15 10 22 13 32 17 6 3h3l-1-4-14-9-18-13-11-9-13-10-16-13-13-8zm-84 61-6 9-2 6v13l4 9 8 11 13 13 17 12 13 8 20 9 30 11 22 7 25 6 47 9 13 2h9l1-2v-8l-4-10-7-4-37-10-26-9-23-10-29-14-21-12-18-13-15-11-16-12-13-9zm11 95-5 4-1 7 4 10 10 11 8 7 12 10 26 15 19 6 46 9 53 7h9l5-4 3-8 2-10v-8l-7-2-39-7-32-7-34-10-22-8-26-11-17-9-6-2zm228 15 1 9 6 10 8 8 8 3 22 3 43 5 40 5 4-2-2-4-17-8-24-9-26-8-29-7-31-5zm-8 48-6 12v8l3 5 5 4 14 7 14 3 53 3 69 4h16l1-2v-13l-3-6-5-5-5-1-58-3-40-4-33-5-15-5-4-2zm-132 38-4 4 1 9 6 11 11 13 8 5 6 2 11 1 36 1 22 1 6-2 4-10 5-16v-5l-6-2-64-8-36-4zm139 23-5 5-2 4v7l3 7 5 5 10 5 14 2 93 4h20l5-5 8-9 7-8 2-4-3-2-27-2-79-5-43-4zm230 35-6 3-6 12-7 20 1 6 13 10 19 14 14 11 16 13h5l13-11 10-8-1-6-9-11-12-14-9-11-14-17-8-8-7-3zm-320 14-18 2-6 3v7l5 5 5 4 8 3 7 1h49l21-1 16-4 7-3-1-5-5-7-5-2-16-2-23-1zm126 15-5 4-2 4v8l4 8 9 8 4 1h27l19-3 30-7 10-5 3-4-1-7-3-4-19-2-16-1zm-45 32-44 5-11 2-1 3 8 10 8 6 19 8 14 4h17l17-4 15-5 1-4-10-11-11-9-7-5zm154 14-19 2-20 5-18 7-11 7-9 9-5 10-2 10v36l4 17 6 12 7 8 10 7 11 5 19 4 11 1h69l10-2 4-6 5-24 5-17 8-18 7-12 6-10 2-7-6-10-15-13-10-7-15-8-15-4-17-2zm188 27-14 7-14 10-13 11-14 14-7 10-9 16-6 15-3 13v32l4 5 25 17 19 14 12 10 16 12 13 8 20 8 24 7 11 2h28l36-6 26-6 26-8 32-12 16-7 16-10 9-7 4-5 1-3v-12l-3-6-6-5-4-1h-19l-37 2h-18l-16-3-12-5-10-6-9-7-20-18-8-7-34-32-12-11-11-10-11-9-11-10-10-7z" fill="currentColor"/>
</svg>
