<?xml version="1.0" encoding="UTF-8"?>
<svg version="1.1" viewBox="0 0 2048 412" width="680" height="137" xmlns="http://www.w3.org/2000/svg">
<path transform="translate(156,125)" d="m0 0h29l22 3 18 6 12 8 10 9 6 7 8 14 3 9 1 11h-61l-5-10-8-7-7-3-6-1h-13l-10 2-8 5-3 4-1 7 3 8 5 4 6 2 50 5 18 4 12 5 10 7 7 7 7 10 4 11 2 9v22l-4 15-6 11-11 12-10 7-16 7-17 4-18 2h-27l-20-3-16-5-15-8-12-11-10-13-5-11-4-17v-3h61l5 12 5 6 8 5 7 2 16 1 11-2 8-4 4-4 2-7-1-9-3-5-6-4-7-2-53-6-15-4-14-7-11-10-7-10-4-9-2-7-1-9v-9l2-13 4-10 7-11 11-11 14-9 10-4 20-4z" fill="#F88B29"/>
<path transform="translate(766,119)" d="m0 0h60l1 1v215l-2 1h-58l-1-1-1-16-9 9-14 8-15 4-9 1h-11l-19-3-16-8-11-10-9-14-5-13-4-19-1-18 2-19 5-19 6-12 7-9 9-9 12-7 16-4h27l13 3 12 6 12 11 2 2zm-43 105-8 3-7 6-4 9-1 6v21l3 11 4 6 6 5 6 2 7 1h12l12-3 8-7 3-8 2-10v-15l-3-14-6-8-7-4-4-1z" fill="#F88B29"/>
<path transform="translate(1770,119)" d="m0 0h60l1 1v125l5-5 8-11 13-16 9-11 13-16 3-4 72-1v3l-9 9h-2l-2 4-14 14-8 7-29 29 2 5 14 18 10 13 14 18 10 13 13 17 2 5h-69l-10-13-14-20-10-14h-4l-10 10-6 5-1 31-3 1h-58l-1-216z" fill="#F88B29"/>
<path transform="translate(920,177)" d="m0 0h34l20 4 16 8 11 8 9 11 8 16 4 18 1 8v23l-3 1h-111l1 7 5 10 7 6 10 3h12l10-3 7-5 2-3h59l-1 7-5 11-7 10-8 8-15 8-17 5-12 2-14 1h-12l-19-2-11-3-12-5-12-7-12-12-8-13-6-18-2-11v-23l4-18 5-12 6-10 9-10 9-7 16-8 15-4zm17 38-13 2-8 5-5 7-3 8v3h58l-1-7-5-10-6-5-6-2z" fill="#F88B29"/>
<path transform="translate(1453,177)" d="m0 0h34l17 3 14 5 13 9 8 10 5 12 2 13 1 81 2 25-1 1h-50l-2-6-2-22-7 12-9 9-12 6-15 4-21 1-13-2-12-5-10-8-7-10-4-12v-16l3-11 5-9 7-7 10-6 16-5 26-5 28-5 8-4 2-3v-8l-4-5-5-2h-18l-10 4-4 4-3 9h-58l1-10 5-12 6-9 6-7 15-10 16-6zm36 83-8 4-29 9-6 4-3 7 1 9 5 6 5 2h14l10-5 5-5 4-6 3-12v-13z" fill="#F88B29"/>
<path transform="translate(1644,177)" d="m0 0h32l17 3 14 5 13 8 10 9 7 9 6 12 3 9 2 11v6h-60l-3-11-5-8-7-4-3-1h-19l-8 3-5 4-5 10-1 5v24l4 12 2 4 4 2 13 4h10l9-2 8-6 4-8 2-9 60 1-1 13-5 16-7 12-9 10-9 7-14 7-17 5-20 2h-12l-18-2-16-4-17-8-11-9-8-9-7-12-6-18-2-12v-16l3-17 5-14 8-13 9-10 12-9 16-7 14-3z" fill="#F88B29"/>
<path transform="translate(1041,130)" d="m0 0h191v49h-64v156l-62 1-1-1-1-155-63-1z" fill="#F88B29"/>
<path transform="translate(336,143)" d="m0 0 29 1v38h39l1 1v43l-1 1h-39v61h34v47l-1 1h-29l-21-2-13-4-10-6-7-6-6-9-5-14-2-13v-55h-27v-28l30-15h2l2-5 13-21 8-13z" fill="#F88B29"/>
<path transform="translate(516,179)" d="m0 0h25v58l-1 1-30 1-11 4-5 5-4 8-1 4-1 15v59l-1 1-60 1-1-1v-153h59l1 5-1 20h2l3-9 6-9 6-5 9-4z" fill="#F88B29"/>
<path transform="translate(1346,179)" d="m0 0h24v58l-1 1-30 1-11 4-5 4-4 8-2 13v66l-1 1-60 1-1-1v-153h59l1 25 5-12 9-10 8-4z" fill="#F88B29"/>
<path transform="translate(559,182)" d="m0 0h62v153l-61 1-1-1z" fill="#F88B29"/>
<path transform="translate(560,130)" d="m0 0h60l1 4v29l-1 1h-60l-1-1v-32z" fill="#F88B29"/>
</svg>
